<svg width="28" height="26" viewBox="0 0 28 26" fill="none" xmlns="http://www.w3.org/2000/svg">
<path d="M26.7295 12.7949L15.4092 1.48042L14.6504 0.721631C14.4775 0.549883 14.2437 0.453491 14 0.453491C13.7563 0.453491 13.5225 0.549883 13.3496 0.721631L1.27051 12.7949C1.09335 12.9713 0.953344 13.1815 0.858746 13.413C0.764148 13.6444 0.716878 13.8925 0.719726 14.1425C0.731445 15.1738 1.58984 15.997 2.62109 15.997H3.86621V25.539H24.1338V15.997H25.4053C25.9062 15.997 26.3779 15.8007 26.7324 15.4462C26.907 15.2723 27.0453 15.0654 27.1393 14.8376C27.2334 14.6097 27.2813 14.3655 27.2803 14.1191C27.2803 13.621 27.084 13.1494 26.7295 12.7949ZM15.6406 23.4296H12.3594V17.4531H15.6406V23.4296ZM22.0244 13.8876V23.4296H17.5156V16.75C17.5156 16.1025 16.9912 15.5781 16.3437 15.5781H11.6562C11.0088 15.5781 10.4844 16.1025 10.4844 16.75V23.4296H5.97559V13.8876H3.16309L14.0029 3.05659L14.6797 3.73335L24.8398 13.8876H22.0244Z" fill="white"/>
</svg>
