<svg width="23" height="24" viewBox="0 0 23 24" fill="none" xmlns="http://www.w3.org/2000/svg">
<path fill-rule="evenodd" clip-rule="evenodd" d="M11.7088 1.56001C12.7075 0.561308 14.062 0.000244141 15.4744 0.000244141C16.8868 0.000244141 18.2413 0.561308 19.24 1.56001C20.2387 2.55871 20.7998 3.91323 20.7998 5.32561C20.7998 6.73798 20.2387 8.09251 19.24 9.09121L10.0288 18.3024C9.74441 18.5869 9.40677 18.8126 9.03515 18.9666C8.66354 19.1206 8.26523 19.1999 7.86296 19.2C7.05056 19.2001 6.27136 18.8776 5.6968 18.3032C5.12223 17.7289 4.79936 16.9498 4.79921 16.1374C4.79906 15.325 5.12165 14.5458 5.696 13.9712L14.632 5.03361L15.7648 6.16641L6.8272 15.1024C6.69136 15.2382 6.58361 15.3995 6.51009 15.577C6.43657 15.7545 6.39874 15.9447 6.39874 16.1368C6.39874 16.3289 6.43657 16.5191 6.51009 16.6966C6.58361 16.8741 6.69136 17.0354 6.8272 17.1712C6.96304 17.307 7.1243 17.4148 7.30179 17.4883C7.47927 17.5618 7.66949 17.5997 7.8616 17.5997C8.0537 17.5997 8.24393 17.5618 8.42141 17.4883C8.5989 17.4148 8.76016 17.307 8.896 17.1712L18.1072 7.96001C18.4532 7.61405 18.7276 7.20334 18.9148 6.75133C19.102 6.29932 19.1984 5.81486 19.1984 5.32561C19.1984 4.83635 19.102 4.35189 18.9148 3.89988C18.7276 3.44787 18.4532 3.03716 18.1072 2.69121C17.7612 2.34525 17.3505 2.07083 16.8985 1.8836C16.4465 1.69637 15.9621 1.6 15.4728 1.6C14.9835 1.6 14.4991 1.69637 14.0471 1.8836C13.5951 2.07083 13.1844 2.34525 12.8384 2.69121L3.3536 12.1776C2.25332 13.3053 1.64176 14.8212 1.65146 16.3967C1.66116 17.9723 2.29134 19.4805 3.40542 20.5946C4.51951 21.7087 6.02775 22.3388 7.60327 22.3485C9.1788 22.3582 10.6947 21.7467 11.8224 20.6464L21.0336 11.4336L22.1664 12.5664L12.9536 21.7776C11.5219 23.1579 9.60552 23.9209 7.61689 23.9027C5.62826 23.8844 3.72627 23.0862 2.32015 21.6799C0.914021 20.2735 0.116131 18.3714 0.09815 16.3828C0.0801685 14.3942 0.843532 12.4779 2.224 11.0464L11.7088 1.55841V1.56001Z" fill="#3C3C3C"/>
</svg>
