<svg width="27" height="27" viewBox="0 0 27 27" fill="none" xmlns="http://www.w3.org/2000/svg">
<path d="M26.1875 24.8618L19.1075 17.7818C20.8088 15.7393 21.6572 13.1195 21.4762 10.4674C21.2952 7.81524 20.0986 5.33501 18.1355 3.54263C16.1724 1.75024 13.5938 0.783713 10.9362 0.844099C8.27856 0.904485 5.74654 1.98714 3.86684 3.86684C1.98714 5.74654 0.904485 8.27856 0.844099 10.9362C0.783713 13.5938 1.75024 16.1724 3.54263 18.1355C5.33501 20.0986 7.81524 21.2952 10.4674 21.4762C13.1195 21.6572 15.7393 20.8088 17.7818 19.1075L24.8618 26.1875L26.1875 24.8618ZM2.74996 11.1875C2.74996 9.51868 3.24481 7.88737 4.17193 6.49983C5.09906 5.11229 6.41681 4.03084 7.95856 3.39222C9.50032 2.75361 11.1968 2.58652 12.8335 2.91208C14.4702 3.23764 15.9737 4.04124 17.1537 5.22124C18.3337 6.40125 19.1373 7.90467 19.4628 9.54138C19.7884 11.1781 19.6213 12.8746 18.9827 14.4163C18.3441 15.9581 17.2626 17.2759 15.8751 18.203C14.4875 19.1301 12.8562 19.625 11.1875 19.625C8.95045 19.6225 6.80578 18.7327 5.22398 17.1509C3.64218 15.5691 2.75244 13.4245 2.74996 11.1875Z" fill="#3C3C3C"/>
</svg>
